<svg width="544" height="249" viewBox="0 0 544 249" fill="none" xmlns="http://www.w3.org/2000/svg">
<path d="M277.266 111.269H275.766V114.269H277.266V111.269ZM386.09 114.269H387.59V111.269H386.09V114.269ZM277.266 114.269H386.09V111.269H277.266V114.269Z" fill="#090800" fill-opacity="0.8"/>
<path d="M386.635 195.537C433.781 195.537 472 158.48 472 112.769C472 67.0568 433.781 30 386.635 30C339.488 30 301.269 67.0568 301.269 112.769C301.269 158.48 339.488 195.537 386.635 195.537Z" stroke="#090800" stroke-opacity="0.8" stroke-width="3" stroke-miterlimit="3" stroke-linecap="square"/>
<path d="M192.242 195.537C239.388 195.537 277.608 158.48 277.608 112.769C277.608 67.0568 239.388 30 192.242 30C145.096 30 106.877 67.0568 106.877 112.769C106.877 158.48 145.096 195.537 192.242 195.537Z" fill="#A79F00"/>
<path d="M157.365 195.537C204.512 195.537 242.731 158.48 242.731 112.769C242.731 67.0568 204.512 30 157.365 30C110.219 30 72 67.0568 72 112.769C72 158.48 110.219 195.537 157.365 195.537Z" stroke="#090800" stroke-opacity="0.8" stroke-width="3" stroke-miterlimit="3" stroke-linecap="square"/>
<circle cx="386.338" cy="112.721" r="2.57353" fill="#090800"/>
<circle cx="386.338" cy="112.721" r="1.5" stroke="#090800" stroke-opacity="0.8" stroke-width="2.14706"/>
</svg>